<?xml version="1.0" encoding="UTF-8"?>
<svg xmlns="http://www.w3.org/2000/svg" version="1.1" viewBox="0 0 15.093004485904212 15.093004485904212" width="15.093004485904212" height="15.093004485904212">
  <defs>
    <clipPath clipPathUnits="userSpaceOnUse" id="clipPath2290">
      <path d="M 0,0 H 365760 V 205740 H 0 Z" id="path2290" />
    </clipPath>
    <clipPath clipPathUnits="userSpaceOnUse" id="clipPath2292">
      <path d="M 0,0 H 365760 V 205740 H 0 Z" id="path2292" />
    </clipPath>
    <clipPath clipPathUnits="userSpaceOnUse" id="clipPath2293">
      <path d="M 0,0 H 365760 V 205740 H 0 Z" transform="matrix(0.00262467,0,0,0.00262467,-183.6684,-225.18957)" id="path2293" />
    </clipPath>
  </defs>
  <g transform="translate(-46.168250990723585,-101.90108931067614)">
    <g id="g34" transform="translate(-12.345852,-15.311841)">
      <path id="path2289" d="m 77607.94,70494.73 -341.09,71.06 -497.36,213.1 -511.58,468.985 -255.8,468.905 -99.44,341.09 -28.46,184.72 -184.726,1833.17 -14.234,71.06 -99.44,85.21 -71.06,14.23 h -1264.734 l -99.436,99.52 -14.24,70.986 v 582.648 l 14.24,71.066 99.436,99.434 71.064,14.236 h 1151.07 l 99.436,113.66 v 71.065 l -355.236,3595.265 -42.686,184.735 -156.274,326.855 -270.02,241.57 -341,127.895 -184.815,14.225 h -56.835 l -170.5,-14.225 -312.63,-113.675 -241.57,-198.96 -156.35,-270.02 -42.61,-156.274 -28.365,-71.066 -99.525,-99.434 -71.06,-14.226 h -568.42 l -85.21,14.226 -85.3,99.434 v 71.066 l 42.61,341.004 312.624,611.11 497.356,454.75 639.49,255.71 369.46,28.465 h 241.65 l 355.23,-71.065 483.13,-213.11 511.59,-468.98 255.79,-454.75 99.44,-355.236 28.46,-184.724 369.46,-3708.94 14.225,-71.06 99.435,-85.29 h 1833.17 l 284.255,14.225 539.961,241.565 213.184,198.96 1023.1,1151.08 42.684,56.825 v 127.895 l -42.684,56.84 -1904.14,1904.226 -42.69,56.834 v 142.04 l 42.69,56.92 412.06,412.065 56.835,42.609 h 127.895 l 56.83,-42.609 1861.63,-1861.539 56.83,-42.686 h 142.13 l 56.825,42.686 1634.205,1833.078 56.834,42.696 142.126,14.226 56.835,-42.686 426.295,-397.84 42.6,-42.685 14.23,-142.135 -42.6,-56.826 -1676.89,-1875.774 -42.6,-56.83 v -142.13 l 42.6,-42.6 1662.66,-1662.666 42.6,-56.834 v -142.04 l -42.6,-56.915 -412.154,-412.07 -56.826,-42.605 h -142.05 l -56.83,42.605 -1605.825,1619.975 -56.835,42.69 -142.13,-14.23 -56.83,-42.61 -980.49,-1094.24 -170.58,-170.5 -397.84,-298.48 -440.52,-198.88 -483.22,-99.52 h -1875.77 l -85.2,-14.23 -85.3,-113.66 -14.22,-71.07 170.5,-1705.27 28.46,-198.87 170.5,-326.86 270.02,-241.566 341.09,-127.898 198.87,-14.226 h 99.526 l 156.274,14.226 298.48,99.434 241.57,213.2 156.27,269.94 28.45,156.356 28.38,71.064 99.52,99.436 h 71.06 l 582.574,14.224 h 71.066 l 85.286,-99.52 14.234,-70.98 -56.836,-355.32 -298.484,-611.02 -483.125,-454.76 -468.985,-213.1 -355.234,-71.06 z" style="fill:#28b5e8;fill-opacity:1;fill-rule:evenodd;stroke:none" transform="matrix(6.9444393e-4,0,0,6.9444393e-4,0,63.500061)" clip-path="url(#clipPath2290)" />
      <path id="path2291" d="m 70429.74,82218.33 -309.51,14.225 -550.25,184.735 -412.714,341.085 -223.532,454.755 -17.214,255.8 v 2842.02 l 17.214,241.65 223.532,454.67 412.714,341.09 550.25,184.73 309.51,14.23 h 15251.596 l 309.514,-14.23 533.03,-184.73 412.72,-341.09 223.525,-454.67 34.335,-241.65 v -2842.02 l -34.335,-255.8 -223.525,-454.755 -412.72,-341.085 -533.03,-184.735 -309.514,-14.225 z" style="fill:#11567f;fill-opacity:1;fill-rule:evenodd;stroke:none" transform="matrix(6.9444393e-4,0,0,6.9444393e-4,0,63.500061)" clip-path="url(#clipPath2292)" />
      <text id="text2292" xml:space="preserve" transform="matrix(0.26458333,0,0,0.26458333,48.59561,123.08145)" clip-path="url(#clipPath2293)">
        <tspan id="tspan2292" style="font-variant:normal;font-weight:700;font-size:6.66667px;font-family:Arial;writing-mode:lr-tb;fill:#ffffff;fill-opacity:1;fill-rule:nonzero;stroke:none" x="0" dx="0 0 0 0 0 0 0 -0.49333331" y="0">AGGREGATE</tspan>
      </text>
    </g>
  </g>
</svg>