<?xml version="1.0" encoding="UTF-8" standalone="no"?>
<!-- Created with Inkscape (http://www.inkscape.org/) -->

<svg
   width="13.834814mm"
   height="14.002658mm"
   viewBox="0 0 13.834814 14.002658"
   version="1.1"
   id="svg1"
   xml:space="preserve"
   xmlns="http://www.w3.org/2000/svg"
   xmlns:svg="http://www.w3.org/2000/svg"><defs
     id="defs1"><clipPath
       clipPathUnits="userSpaceOnUse"
       id="clipPath1423"><path
         d="M 0,0 H 365760 V 205740 H 0 Z"
         id="path1423" /></clipPath><clipPath
       clipPathUnits="userSpaceOnUse"
       id="clipPath1444"><path
         d="M 0,0 H 365760 V 205740 H 0 Z"
         transform="matrix(0.00262467,0,0,0.00262467,-286.0892,-477.66781)"
         id="path1444" /></clipPath><clipPath
       clipPathUnits="userSpaceOnUse"
       id="clipPath1445"><path
         d="M 0,0 H 365760 V 205740 H 0 Z"
         transform="matrix(0.00262467,0,0,0.00262467,-304.7669,-486.30781)"
         id="path1445" /></clipPath></defs><g
     id="g1110"
     transform="matrix(0.26458333,0,0,0.26458334,143.21727,-328.47443)"><g
       id="g222"
       transform="translate(0,79.999992)"><g
         id="g207"
         transform="translate(0,-119.99999)"><path
           id="path1422"
           d="m 119080.72,165664.14 c 189.99,0 341.45,151.46 341.45,341.44 0,191.32 -151.46,342.78 -341.45,342.78 -188.66,0 -342.78,-152.78 -342.78,-342.78 0,-189.98 154.12,-341.44 342.78,-341.44 z m -2836.56,706.81 c 191.32,0 342.78,154.11 342.78,342.78 0,189.99 -151.46,344.11 -342.78,344.11 -190,0 -341.46,-156.78 -341.46,-344.11 0,-188.67 151.46,-342.78 341.46,-342.78 z m 5667.81,0 c 189.99,0 344.11,154.11 344.11,342.78 0,189.99 -154.12,344.11 -344.11,344.11 -188.66,0 -342.77,-154.12 -342.77,-344.11 0,-188.67 155.44,-342.78 342.77,-342.78 z m -7189.06,2461.89 c 189.99,0 344.11,151.47 344.11,342.78 0,190 -154.12,341.46 -344.11,341.46 -187.34,0 -342.78,-151.46 -342.78,-341.46 0,-191.31 154.11,-342.78 342.78,-342.78 z m 8710.31,0 c 189.99,0 344.11,151.47 344.11,342.78 0,190 -154.12,341.46 -344.11,341.46 -188.66,0 -342.78,-151.46 -342.78,-341.46 0,-191.31 154.12,-342.78 342.78,-342.78 z m -4352.5,-664.29 426.48,1424.26 c 41.19,139.5 159.43,248.46 304.25,276.35 26.57,5.31 51.82,7.96 78.39,7.96 118.25,0 232.5,-54.46 308.24,-146.14 l 769.26,-935.32 -280.34,1879.96 c -23.91,147.48 41.19,296.28 162.09,383.98 69.09,50.48 150.13,73.06 232.5,73.06 63.78,0 124.89,-13.28 183.35,-42.52 l 1061.55,-551.36 -597.86,2387.5 h -5297.15 l -595.21,-2387.5 1058.9,551.36 c 59.78,29.24 122.23,42.52 186,42.52 81.05,0 163.42,-22.58 232.51,-73.06 122.23,-86.37 183.34,-236.5 162.09,-383.98 l -280.33,-1879.96 v 0 l 769.26,935.32 c 75.72,91.68 188.66,146.14 308.23,146.14 25.24,0 51.81,-2.65 78.39,-7.96 146.14,-30.55 260.41,-136.85 304.25,-276.35 z m 0,-3013.27 c -471.66,0 -854.29,382.64 -854.29,852.97 0,322.85 180.69,599.19 443.75,745.35 l -565.98,1891.92 -1173.16,-1428.25 c 102.3,-140.83 167.4,-316.21 167.4,-503.54 0,-471.65 -382.63,-851.63 -854.28,-851.63 -471.66,0 -851.64,379.98 -851.64,851.63 0,455.71 358.72,826.39 810.45,848.97 l 366.69,2455.27 -1046.93,-543.41 c 33.21,-95.66 57.12,-193.96 57.12,-298.94 0,-471.64 -382.63,-854.28 -854.29,-854.28 -471.65,0 -852.96,382.64 -852.96,854.28 0,470.33 381.31,852.98 852.96,852.98 54.48,0 106.29,-7.98 156.78,-14.62 l 728.07,2912.3 h -225.86 c -219.22,0 -401.24,179.36 -401.24,398.58 0,221.87 182.02,401.24 401.24,401.24 h 7262.14 c 217.89,0 399.9,-179.37 399.9,-401.24 0,-220.55 -182.01,-398.58 -399.9,-398.58 h -93 l 725.41,-2912.3 c 49.16,10.63 103.63,14.62 154.12,14.62 471.66,0 852.96,-382.65 852.96,-852.98 1.33,-471.64 -381.3,-854.28 -852.96,-854.28 -471.65,0 -854.29,382.64 -854.29,854.28 0,104.98 23.91,207.27 57.13,300.27 l -1045.61,542.08 369.35,-2455.27 c 447.74,-23.9 805.13,-394.59 805.13,-848.97 0,-471.65 -382.63,-851.63 -852.96,-851.63 -471.65,0 -854.29,379.98 -854.29,851.63 0,189.99 65.1,365.37 170.06,504.87 l -1170.5,1426.92 -567.31,-1891.92 c 264.39,-146.16 443.75,-422.5 443.75,-745.35 0,-470.33 -382.63,-852.97 -852.96,-852.97 z m -3698.83,8945.49 c -143.48,0 -256.42,111.59 -256.42,256.42 0,142.15 116.92,256.41 256.42,256.41 h 7262.14 c 142.16,0 256.42,-116.91 256.42,-256.41 0,-140.85 -111.6,-256.42 -256.42,-256.42 z"
           style="fill:#2ab4e7;fill-opacity:1;fill-rule:evenodd;stroke:none"
           transform="matrix(0.00262467,0,0,0.00262467,-828,848)"
           clip-path="url(#clipPath1423)" /></g><text
         id="text1443"
         xml:space="preserve"
         transform="translate(-541.9108,1205.6678)"
         clip-path="url(#clipPath1444)"><tspan
           id="tspan1443"
           style="font-variant:normal;font-weight:normal;font-size:8px;font-family:Arial;writing-mode:lr-tb;fill:#11567f;fill-opacity:1;fill-rule:nonzero;stroke:none"
           x="0"
           y="0">Put Customers </tspan></text><text
         id="text1444"
         xml:space="preserve"
         transform="translate(-523.2331,1214.3078)"
         clip-path="url(#clipPath1445)"><tspan
           id="tspan1444"
           style="font-variant:normal;font-weight:normal;font-size:8px;font-family:Arial;writing-mode:lr-tb;fill:#11567f;fill-opacity:1;fill-rule:nonzero;stroke:none"
           x="0"
           y="0">First</tspan></text></g></g></svg>
