<?xml version="1.0" encoding="UTF-8" standalone="no"?>
<!-- Created with Inkscape (http://www.inkscape.org/) -->

<svg
   width="6.5994487mm"
   height="11.962016mm"
   viewBox="0 0 6.5994487 11.962016"
   version="1.1"
   id="svg1"
   xml:space="preserve"
   xmlns="http://www.w3.org/2000/svg"
   xmlns:svg="http://www.w3.org/2000/svg"><defs
     id="defs1"><clipPath
       clipPathUnits="userSpaceOnUse"
       id="clipPath753"><path
         d="M 0,0 H 365760 V 205740 H 0 Z"
         transform="matrix(0.00262467,0,0,0.00262467,-218.71,-152.01594)"
         id="path753" /></clipPath><clipPath
       clipPathUnits="userSpaceOnUse"
       id="clipPath809"><path
         d="M 0,0 H 365760 V 205740 H 0 Z"
         id="path809" /></clipPath><clipPath
       clipPathUnits="userSpaceOnUse"
       id="clipPath811"><path
         d="M 0,0 H 365760 V 205740 H 0 Z"
         id="path811" /></clipPath><clipPath
       clipPathUnits="userSpaceOnUse"
       id="clipPath813"><path
         d="M 0,0 H 365760 V 205740 H 0 Z"
         id="path813" /></clipPath><clipPath
       clipPathUnits="userSpaceOnUse"
       id="clipPath815"><path
         d="M 0,0 H 365760 V 205740 H 0 Z"
         id="path815" /></clipPath><clipPath
       clipPathUnits="userSpaceOnUse"
       id="clipPath817"><path
         d="M 0,0 H 365760 V 205740 H 0 Z"
         id="path817" /></clipPath></defs><g
     id="g1110"
     transform="matrix(0.26458333,0,0,0.26458334,161.68777,-134.64721)"><g
       id="g319"
       transform="translate(0,99.999991)"><text
         id="text752"
         xml:space="preserve"
         transform="translate(-609.29,454.01593)"
         clip-path="url(#clipPath753)"><tspan
           id="tspan752"
           style="font-variant:normal;font-weight:normal;font-size:8px;font-family:Arial;writing-mode:lr-tb;fill:#105780;fill-opacity:1;fill-rule:nonzero;stroke:none"
           x="0"
           y="0">JSON</tspan></text><g
         id="g109"
         transform="translate(0,-119.99999)"><path
           id="path808"
           d="m 91199.1,45061.816 h -744.87 v -3921.363 c 0,-226.558 -183.61,-410.238 -410.14,-410.238 -2.24,0 -4.44,0 -6.645,0.04 H 85000.36 c -126.37,-4.44 -247.665,50.13 -328.13,147.652 l -1936.105,2297.058 c -63.845,73.794 -98.835,168.228 -98.445,265.786 v 7133.977 c -1.81,224.715 178.88,408.394 403.6,410.172 2.204,0.04 4.4,0.04 6.6,0 h 6989.565 c 224.68,5.468 411.205,-172.278 416.675,-396.918 0.11,-4.442 0.11,-8.813 0.11,-13.254 v -1181.34 h 751.45 c 515.76,-1.813 933.42,-419.477 935.2,-935.238 v -2461.09 c -1.78,-518.315 -423.42,-937.051 -941.78,-935.239 0,0 0,0 0,0 z m -6494.084,-2933.648 v 1063.207 h -902.406 z m 4922.254,8036.387 h -6152.8 v -6152.801 h 1640.76 c 224.64,5.434 411.19,-172.277 416.63,-396.922 0.11,-4.437 0.14,-8.842 0.11,-13.285 v -2050.922 h 4101.88 v 3511.191 h -4594.084 c -515.796,1.814 -933.43,419.477 -935.246,935.239 v 2461.09 c 1.816,515.761 419.45,933.425 935.246,935.238 h 4594.084 z m 1968.894,-1706.41 c 0,226.562 -183.644,410.205 -410.174,410.205 h -6165.94 c -226.534,0 -410.175,-183.643 -410.175,-410.205 v -2461.09 c 0,-226.563 183.641,-410.207 410.175,-410.207 h 6179.05 c 226.564,0 410.21,183.644 410.21,410.207 z"
           style="fill:#2ab5e8;fill-opacity:1;fill-rule:evenodd;stroke:none"
           transform="matrix(0.00262467,0,0,0.00262467,-828,421.99999)"
           clip-path="url(#clipPath809)" /><path
           id="path810"
           d="m 85581.21,47529.445 c 0,305.185 -105.02,436.461 -328.17,436.461 -104.67,-2.769 -205.32,-40.929 -285.47,-108.289 l -150.96,249.373 c 123.64,111.912 286.25,170.815 452.84,164.065 426.58,0 620.214,-275.625 623.48,-679.258 v -1273.215 h -328.13 z"
           style="fill:#2ab5e8;fill-opacity:1;fill-rule:evenodd;stroke:none"
           transform="matrix(0.00262467,0,0,0.00262467,-828,421.99999)"
           clip-path="url(#clipPath811)" /><path
           id="path812"
           d="m 86897.055,47096.324 c -292.039,-88.604 -380.641,-157.531 -380.641,-288.769 0,-131.278 108.286,-239.565 298.606,-239.565 162.47,-3.09 320.36,54.213 443,160.8 l 170.644,-255.946 c -169.469,-145.949 -390.884,-216.969 -613.644,-196.894 -423.31,0 -656.27,216.577 -656.27,544.714 0,328.172 180.484,442.996 577.55,567.699 328.13,108.289 377.33,180.485 377.33,328.137 0,147.69 -91.87,265.82 -328.13,265.82 -178.81,-5.613 -350.695,-70.238 -488.94,-183.75 l -170.64,236.262 c 178.885,162.824 414.58,248.871 656.314,239.528 313.886,45.37 605.106,-172.35 650.446,-486.235 4.37,-30.235 6.32,-60.755 5.83,-91.309 62.35,-301.878 -114.83,-469.254 -541.455,-600.492 z"
           style="fill:#2ab5e8;fill-opacity:1;fill-rule:evenodd;stroke:none"
           transform="matrix(0.00262467,0,0,0.00262467,-828,421.99999)"
           clip-path="url(#clipPath813)" /><path
           id="path814"
           d="m 88459.05,46275.95 c -503.51,17.515 -897.48,439.905 -879.964,943.445 0.68,19.148 1.954,38.295 3.804,57.41 -59.44,485.703 286.14,927.635 771.81,987.075 485.7,59.47 927.636,-286.07 987.07,-771.81 8.78,-71.484 8.78,-143.746 0,-215.265 47.394,-503.43 -322.34,-949.945 -825.7,-997.27 -18.98,-1.775 -37.984,-2.985 -57.02,-3.585 z m 0,1689.956 c -328.14,0 -551.29,-298.613 -551.29,-689.101 0,-390.489 223.15,-698.975 551.29,-698.975 328.17,0 557.86,305.186 557.86,698.975 42.88,336.203 -194.95,643.449 -531.144,686.293 -8.852,1.136 -17.766,2.062 -26.716,2.808 z"
           style="fill:#2ab5e8;fill-opacity:1;fill-rule:evenodd;stroke:none"
           transform="matrix(0.00262467,0,0,0.00262467,-828,421.99999)"
           clip-path="url(#clipPath815)" /><path
           id="path816"
           d="m 90759.414,47647.574 -974.609,-1328.992 h -232.995 v 1906.535 h 311.76 v -1322.422 l 974.61,1322.422 h 236.26 v -1906.535 h -315.026 z"
           style="fill:#2ab5e8;fill-opacity:1;fill-rule:evenodd;stroke:none"
           transform="matrix(0.00262467,0,0,0.00262467,-828,421.99999)"
           clip-path="url(#clipPath817)" /></g></g></g></svg>
