<?xml version="1.0" encoding="UTF-8" standalone="no"?>
<!-- Created with Inkscape (http://www.inkscape.org/) -->

<svg
   width="7.5468674mm"
   height="12.641355mm"
   viewBox="0 0 7.5468674 12.641354"
   version="1.1"
   id="svg1"
   xml:space="preserve"
   xmlns="http://www.w3.org/2000/svg"
   xmlns:svg="http://www.w3.org/2000/svg"><defs
     id="defs1"><clipPath
       clipPathUnits="userSpaceOnUse"
       id="clipPath893"><path
         d="M 0,0 H 365760 V 205740 H 0 Z"
         id="path893" /></clipPath><clipPath
       clipPathUnits="userSpaceOnUse"
       id="clipPath896"><path
         d="M 0,0 H 365760 V 205740 H 0 Z"
         transform="matrix(0.00262467,0,0,0.00262467,-713.9581,-477.66781)"
         id="path896" /></clipPath></defs><g
     id="g1110"
     transform="matrix(0.26458333,0,0,0.26458334,30.144019,-218.01223)"><g
       id="g281"
       transform="translate(0,91.999991)"><g
         id="g158"
         transform="translate(0,-119.99999)"><path
           id="path892"
           d="m 277557.3,163823.72 c -95.42,0 -170.3,77.31 -170.3,172.73 v 1384.25 c 0,95.42 74.88,170.32 170.3,170.32 93,0 170.32,-74.9 170.32,-170.32 v -1384.25 c 0,-95.42 -77.32,-170.31 -170.32,-172.73 z m 2431.5,613.61 c -61.6,0 -120.77,33.83 -152.18,91.81 l -643.82,1226.02 c -44.7,83.34 -10.86,187.22 71.26,231.92 25.38,12.08 53.16,19.31 79.72,19.31 59.19,0 119.6,-33.81 152.19,-93 l 642.63,-1224.81 c 45.9,-84.55 12.06,-187.22 -70.07,-231.92 -25.37,-12.08 -53.15,-19.33 -79.73,-19.33 z m -4867.83,-129.23 c -43.5,0 -88.19,10.85 -129.25,32.6 -134.06,70.07 -186.02,234.33 -114.75,369.61 l 643.81,1226.03 c 49.52,94.22 143.75,146.16 242.78,146.16 41.06,0 84.56,-10.88 126.84,-31.4 132.88,-71.27 183.6,-236.76 114.76,-370.83 l -643.82,-1224.82 c -48.31,-94.22 -142.54,-147.35 -240.37,-147.35 z m 6734.03,1800.96 c -33.8,0 -67.62,9.67 -96.62,29 l -1139.04,787.55 c -79.74,53.14 -97.84,159.44 -45.9,237.95 35.03,47.11 88.16,73.69 142.53,73.69 33.81,0 66.43,-8.45 96.63,-28.98 l 1139.06,-787.57 c 77.28,-53.14 95.4,-159.43 44.68,-237.95 -33.81,-48.31 -86.96,-73.69 -141.34,-73.69 z m -8619.56,-148.56 c -86.97,0 -171.54,41.06 -224.69,118.38 -88.15,122 -54.35,293.51 67.65,379.28 l 1139.07,787.54 c 48.31,35.03 102.65,48.32 155.81,48.32 85.75,0 172.72,-38.66 225.88,-118.38 84.56,-123.2 54.34,-293.52 -70.06,-379.28 l -1139.07,-787.55 c -47.09,-32.61 -101.43,-48.31 -154.59,-48.31 z m -903.54,2339.7 c -136.46,0 -252.43,102.68 -269.34,239.16 -16.9,151 90.6,287.48 236.74,304.39 l 1375.8,169.11 c 10.87,2.42 21.74,2.42 35.02,2.42 135.28,0 252.48,-101.47 270.6,-239.17 18.08,-150.99 -89.42,-287.47 -239.19,-304.39 l -1373.37,-169.11 c -12.06,-1.21 -24.16,-2.41 -36.26,-2.41 z m 1586,1844.47 c -49.52,0 -101.46,8.45 -151,26.56 l -1294.87,491.63 c -221.03,82.12 -332.15,329.75 -248.81,553.22 64,170.31 225.88,274.19 397.38,274.19 50.74,0 102.68,-9.66 153.4,-27.79 l 1294.88,-489.2 c 219.84,-85.75 333.37,-332.17 251.24,-552 -66.42,-172.73 -229.5,-276.61 -402.22,-276.61 z m 7203.9,-35.03 c -206.52,0 -402.2,126.83 -479.52,330.96 -102.68,265.74 32.62,561.68 297.16,661.93 l 1293.66,491.61 c 61.6,21.75 122,33.83 181.18,33.83 206.52,0 402.22,-125.63 480.75,-332.17 100.25,-264.53 -33.83,-560.47 -297.15,-661.94 l -1296.1,-490.41 c -59.18,-22.95 -119.56,-33.81 -179.98,-33.81 z m -6167.52,1560.61 c -118.38,0 -234.34,48.31 -318.9,142.53 l -920.41,1036.38 c -155.81,176.36 -140.13,445.72 36.25,602.73 80.9,72.49 182.38,107.51 282.62,107.51 118.38,0 235.56,-49.52 321.32,-142.52 l 919.22,-1035.18 c 157.02,-177.56 141.32,-446.92 -36.26,-605.15 -82.12,-71.28 -183.59,-106.3 -283.84,-106.3 z m 5108.22,-50.73 c -120.8,0 -242.8,42.26 -340.62,129.23 -213.82,187.23 -230.72,510.95 -44.72,723.55 l 916.81,1035.17 c 101.47,114.75 241.56,173.93 384.09,173.93 122,0 241.6,-42.28 340.66,-129.24 212.56,-187.24 230.68,-510.94 44.68,-722.33 l -916.8,-1036.38 c -101.48,-115.97 -242.8,-173.93 -384.1,-173.93 z m -3482.4,919.2 c -190.85,0 -365.98,130.45 -413.1,323.72 l -332.16,1344.39 c -56.78,230.72 83.36,463.84 310.41,519.4 33.85,8.46 70.05,13.29 103.91,13.29 192.04,0 368.4,-130.46 414.31,-326.13 l 332.15,-1345.61 c 55.58,-229.5 -82.12,-460.2 -311.62,-515.76 -35.03,-8.46 -70.06,-13.3 -103.9,-13.3 z m 1846.9,-72.47 c -41.1,0 -83.34,4.83 -125.62,15.7 -276.63,66.44 -444.5,344.25 -374.48,620.86 l 330.98,1344.39 c 58,233.13 268.15,390.16 497.65,390.16 41.07,0 84.57,-3.63 123.22,-14.5 276.59,-68.84 444.5,-346.66 375.65,-620.86 l -332.18,-1346.81 c -57.97,-233.13 -265.72,-388.94 -495.22,-388.94 z"
           style="fill:#2ab5e8;fill-opacity:1;fill-rule:evenodd;stroke:none"
           transform="matrix(0.00262467,0,0,0.00262467,-828,421.99999)"
           clip-path="url(#clipPath893)" /></g><text
         id="text895"
         xml:space="preserve"
         transform="translate(-114.0419,779.6678)"
         clip-path="url(#clipPath896)"><tspan
           id="tspan895"
           style="font-variant:normal;font-weight:normal;font-size:8px;font-family:Arial;writing-mode:lr-tb;fill:#11567f;fill-opacity:1;fill-rule:nonzero;stroke:none"
           x="0"
           y="0">Process</tspan></text></g></g></svg>
