<?xml version="1.0" encoding="UTF-8" standalone="no"?>
<!-- Created with Inkscape (http://www.inkscape.org/) -->

<svg
   width="6.6714683mm"
   height="11.887909mm"
   viewBox="0 0 6.6714683 11.887909"
   version="1.1"
   id="svg1"
   xml:space="preserve"
   xmlns="http://www.w3.org/2000/svg"
   xmlns:svg="http://www.w3.org/2000/svg"><defs
     id="defs1"><clipPath
       clipPathUnits="userSpaceOnUse"
       id="clipPath1304"><path
         d="M 0,0 H 365760 V 205740 H 0 Z"
         transform="matrix(0.00262467,0,0,0.00262467,-388.8242,-314.84176)"
         id="path1304" /></clipPath><clipPath
       clipPathUnits="userSpaceOnUse"
       id="clipPath1306"><path
         d="M 0,0 H 365760 V 205740 H 0 Z"
         id="path1306" /></clipPath></defs><g
     id="g1110"
     transform="matrix(0.26458333,0,0,0.26458334,117.71146,-285.22213)"><g
       id="g244"
       transform="translate(0,79.999992)"><text
         id="text1303"
         xml:space="preserve"
         transform="translate(-439.1758,1042.8418)"
         clip-path="url(#clipPath1304)"><tspan
           id="tspan1303"
           style="font-variant:normal;font-weight:normal;font-size:8px;font-family:Arial;writing-mode:lr-tb;fill:#105780;fill-opacity:1;fill-rule:nonzero;stroke:none"
           x="0"
           y="0">Edit</tspan></text><g
         id="g187"
         transform="translate(0,-119.99999)"><path
           id="path1305"
           d="m 155191.34,104034.96 -879.54,-828.48 c -429.27,-405.25 -1026.61,-447.27 -1353.82,-99.07 l -6030.65,6057.68 c -41.71,42.02 -72.61,93.5 -90.03,150.08 l -855.53,2734.64 c -63.02,193.96 43.12,402.25 237.09,465.28 37.8,12.25 77.34,18.35 117.12,18.03 39.72,-0.1 79.18,-6.21 117.07,-18.03 l 2665.61,-900.55 c 55.36,-18.16 105.73,-49.01 147.09,-90.02 l 6096.67,-6135.74 c 142.81,-152.16 217.6,-355.9 207.13,-564.33 -18.6,-302.34 -154.28,-585.52 -378.21,-789.49 z m -7915.78,7414.48 -261.17,-252.13 432.25,-1371.83 1218.75,1149.69 z m 1777.06,-762.45 -474.28,-456.26 3839.33,-3860.35 v 0 l 228.11,-225.13 c 92.02,-92.01 92.02,-241.21 0,-333.22 -92,-92.01 -241.17,-92.01 -333.18,0 v 0 0 l -4079.46,4094.48 -513.34,-486.27 4856.95,-4874.96 1341.8,1254.76 z m 5190.15,-5226.15 -1329.8,-1254.76 576.31,-582.37 c 118.74,-11.87 235.92,33.93 315.22,123.08 l 876.53,828.52 c 90.74,73.9 145.41,183.24 150.08,300.17 z"
           style="fill:#2ab5e8;fill-opacity:1;fill-rule:evenodd;stroke:none"
           transform="matrix(0.00262467,0,0,0.00262467,-828,848)"
           clip-path="url(#clipPath1306)" /></g></g></g></svg>
