<?xml version="1.0" encoding="UTF-8" standalone="no"?>
<!-- Created with Inkscape (http://www.inkscape.org/) -->

<svg
   width="8.513175mm"
   height="12.13342mm"
   viewBox="0 0 8.513175 12.13342"
   version="1.1"
   id="svg1"
   xml:space="preserve"
   xmlns="http://www.w3.org/2000/svg"
   xmlns:svg="http://www.w3.org/2000/svg"><defs
     id="defs1"><clipPath
       clipPathUnits="userSpaceOnUse"
       id="clipPath1268"><path
         d="M 0,0 H 365760 V 205740 H 0 Z"
         id="path1268" /></clipPath><clipPath
       clipPathUnits="userSpaceOnUse"
       id="clipPath1270"><path
         d="M 0,0 H 365760 V 205740 H 0 Z"
         id="path1270" /></clipPath><clipPath
       clipPathUnits="userSpaceOnUse"
       id="clipPath1272"><path
         d="M 0,0 H 365760 V 205740 H 0 Z"
         id="path1272" /></clipPath><clipPath
       clipPathUnits="userSpaceOnUse"
       id="clipPath1274"><path
         d="M 0,0 H 365760 V 205740 H 0 Z"
         id="path1274" /></clipPath><clipPath
       clipPathUnits="userSpaceOnUse"
       id="clipPath1276"><path
         d="M 0,0 H 365760 V 205740 H 0 Z"
         id="path1276" /></clipPath><clipPath
       clipPathUnits="userSpaceOnUse"
       id="clipPath1278"><path
         d="M 0,0 H 365760 V 205740 H 0 Z"
         id="path1278" /></clipPath><clipPath
       clipPathUnits="userSpaceOnUse"
       id="clipPath1280"><path
         d="M 0,0 H 365760 V 205740 H 0 Z"
         id="path1280" /></clipPath><clipPath
       clipPathUnits="userSpaceOnUse"
       id="clipPath1282"><path
         d="M 0,0 H 365760 V 205740 H 0 Z"
         id="path1282" /></clipPath><clipPath
       clipPathUnits="userSpaceOnUse"
       id="clipPath1284"><path
         d="M 0,0 H 365760 V 205740 H 0 Z"
         id="path1284" /></clipPath><clipPath
       clipPathUnits="userSpaceOnUse"
       id="clipPath1286"><path
         d="M 0,0 H 365760 V 205740 H 0 Z"
         id="path1286" /></clipPath><clipPath
       clipPathUnits="userSpaceOnUse"
       id="clipPath1288"><path
         d="M 0,0 H 365760 V 205740 H 0 Z"
         id="path1288" /></clipPath><clipPath
       clipPathUnits="userSpaceOnUse"
       id="clipPath1295"><path
         d="M 0,0 H 365760 V 205740 H 0 Z"
         transform="matrix(0.00262467,0,0,0.00262467,-462.6564,-314.84176)"
         id="path1295" /></clipPath></defs><g
     id="g1110"
     transform="matrix(0.26458333,0,0,0.26458334,96.558406,-284.97765)"><g
       id="g245"
       transform="translate(0,79.999992)"><g
         id="g188"
         transform="translate(0,-119.99999)"><path
           id="path1267"
           d="m 186836.22,104427.19 c 147.38,0 272.98,125.62 272.98,272.98 v 7057.88 h -2.4 c 0,148.57 -125.63,274.19 -271.78,274.19 h -8721.18 c -147.36,0 -272.98,-126.83 -272.98,-274.19 v -7057.88 c 0,-149.78 125.62,-272.98 272.98,-272.98 h 1648.82 v 100.25 c 0,150.99 122,270.58 270.56,270.58 151,0 273,-119.59 273,-270.58 v -100.25 h 4340.05 v 100.25 c 0,150.99 120.79,270.58 270.57,270.58 150.99,0 271.78,-119.59 271.78,-270.58 v -100.25 z m -6805.41,-1907.31 c -149.78,0 -270.58,120.79 -270.58,271.78 v 787.57 h -1648.81 c -618.45,0 -1120.94,501.28 -1120.94,1120.94 v 7057.88 c 0,618.45 502.49,1120.94 1120.94,1120.94 h 8723.6 c 618.45,0 1120.93,-502.49 1120.93,-1120.94 v -7057.88 c 0,-619.66 -506.11,-1120.94 -1120.93,-1120.94 h -1648.82 v -787.57 c 0,-149.78 -122,-271.78 -272.98,-271.78 -148.58,0 -270.58,120.79 -270.58,271.78 v 787.57 h -4340.04 v -787.57 c 0,-149.78 -120.8,-271.78 -271.79,-271.78 z"
           style="fill:#2ab5e8;fill-opacity:1;fill-rule:evenodd;stroke:none"
           transform="matrix(0.00262467,0,0,0.00262467,-828,848)"
           clip-path="url(#clipPath1268)" /><path
           id="path1269"
           d="m 178987.2,106215.01 c -150.98,0 -272.98,122 -272.98,271.78 0,149.78 122,271.78 272.98,271.78 h 6974.52 c 149.78,0 271.78,-122 271.78,-271.78 0,-149.78 -122,-271.78 -271.78,-271.78 z"
           style="fill:#2ab5e8;fill-opacity:1;fill-rule:evenodd;stroke:none"
           transform="matrix(0.00262467,0,0,0.00262467,-828,848)"
           clip-path="url(#clipPath1270)" /><path
           id="path1271"
           d="m 178987.2,107611.39 c -150.98,0 -272.98,119.59 -272.98,270.58 0,150.99 122,270.58 272.98,270.58 h 1393.92 c 151,0 270.58,-119.59 270.58,-270.58 0,-150.99 -119.58,-270.58 -270.58,-270.58 z"
           style="fill:#2ab5e8;fill-opacity:1;fill-rule:evenodd;stroke:none"
           transform="matrix(0.00262467,0,0,0.00262467,-828,848)"
           clip-path="url(#clipPath1272)" /><path
           id="path1273"
           d="m 181778.75,107611.39 c -150.98,0 -272.98,119.59 -272.98,270.58 0,150.99 122,270.58 272.98,270.58 h 1392.73 c 150.99,0 272.99,-119.59 272.99,-270.58 -3.63,-150.99 -123.2,-270.58 -272.99,-270.58 z"
           style="fill:#2ab5e8;fill-opacity:1;fill-rule:evenodd;stroke:none"
           transform="matrix(0.00262467,0,0,0.00262467,-828,848)"
           clip-path="url(#clipPath1274)" /><path
           id="path1275"
           d="m 184567.9,107611.39 c -150.98,0 -270.57,119.59 -270.57,270.58 0,150.99 119.59,270.58 270.57,270.58 h 1393.93 c 149.78,0 271.78,-119.59 271.78,-270.58 0,-150.99 -122,-270.58 -271.78,-270.58 z"
           style="fill:#2ab5e8;fill-opacity:1;fill-rule:evenodd;stroke:none"
           transform="matrix(0.00262467,0,0,0.00262467,-828,848)"
           clip-path="url(#clipPath1276)" /><path
           id="path1277"
           d="m 178987.2,109006.58 c -150.98,0 -272.98,122 -272.98,272.99 0,148.57 122,270.58 272.98,270.58 h 1393.92 c 151,0 270.58,-122.01 270.58,-270.58 0,-150.99 -119.58,-272.99 -270.58,-272.99 z"
           style="fill:#2ab5e8;fill-opacity:1;fill-rule:evenodd;stroke:none"
           transform="matrix(0.00262467,0,0,0.00262467,-828,848)"
           clip-path="url(#clipPath1278)" /><path
           id="path1279"
           d="m 181778.75,109006.58 c -150.98,0 -272.98,122 -272.98,272.99 0,148.57 122,270.58 272.98,270.58 h 1392.73 c 150.99,0 272.99,-122.01 272.99,-270.58 0,-150.99 -123.2,-272.99 -272.99,-272.99 z"
           style="fill:#2ab5e8;fill-opacity:1;fill-rule:evenodd;stroke:none"
           transform="matrix(0.00262467,0,0,0.00262467,-828,848)"
           clip-path="url(#clipPath1280)" /><path
           id="path1281"
           d="m 184567.9,109006.58 c -150.98,0 -270.57,122 -270.57,272.99 0,148.57 119.59,270.58 270.57,270.58 h 1393.93 c 149.78,0 271.78,-122.01 271.78,-270.58 0,-150.99 -122,-272.99 -271.78,-272.99 z"
           style="fill:#2ab5e8;fill-opacity:1;fill-rule:evenodd;stroke:none"
           transform="matrix(0.00262467,0,0,0.00262467,-828,848)"
           clip-path="url(#clipPath1282)" /><path
           id="path1283"
           d="m 178987.2,110401.75 c -150.98,0 -272.98,120.79 -272.98,271.78 0,149.78 122,270.57 272.98,270.57 h 1393.92 c 151,0 270.58,-120.79 270.58,-270.57 0,-150.99 -119.58,-271.78 -270.58,-271.78 z"
           style="fill:#2ab5e8;fill-opacity:1;fill-rule:evenodd;stroke:none"
           transform="matrix(0.00262467,0,0,0.00262467,-828,848)"
           clip-path="url(#clipPath1284)" /><path
           id="path1285"
           d="m 181778.75,110401.75 c -150.98,0 -272.98,120.79 -272.98,271.78 0,149.78 122,270.57 272.98,270.57 h 1392.73 c 150.99,0 272.99,-120.79 272.99,-270.57 0,-150.99 -123.2,-271.78 -272.99,-271.78 z"
           style="fill:#2ab5e8;fill-opacity:1;fill-rule:evenodd;stroke:none"
           transform="matrix(0.00262467,0,0,0.00262467,-828,848)"
           clip-path="url(#clipPath1286)" /><path
           id="path1287"
           d="m 184567.9,110401.75 c -150.98,0 -270.57,120.79 -270.57,271.78 0,149.78 119.59,270.57 270.57,270.57 h 1393.93 c 149.78,0 271.78,-120.79 271.78,-270.57 0,-150.99 -122,-271.78 -271.78,-271.78 z"
           style="fill:#2ab5e8;fill-opacity:1;fill-rule:evenodd;stroke:none"
           transform="matrix(0.00262467,0,0,0.00262467,-828,848)"
           clip-path="url(#clipPath1288)" /></g><text
         id="text1294"
         xml:space="preserve"
         transform="translate(-365.3436,1042.8418)"
         clip-path="url(#clipPath1295)"><tspan
           id="tspan1294"
           style="font-variant:normal;font-weight:normal;font-size:8px;font-family:Arial;writing-mode:lr-tb;fill:#11567f;fill-opacity:1;fill-rule:nonzero;stroke:none"
           x="0"
           y="0">Calendar</tspan></text></g></g></svg>
