<?xml version="1.0" encoding="UTF-8" standalone="no"?>
<!-- Created with Inkscape (http://www.inkscape.org/) -->

<svg
   width="13.561963mm"
   height="11.723008mm"
   viewBox="0 0 13.561963 11.723008"
   version="1.1"
   id="svg1"
   xml:space="preserve"
   xmlns="http://www.w3.org/2000/svg"
   xmlns:svg="http://www.w3.org/2000/svg"><defs
     id="defs1"><clipPath
       clipPathUnits="userSpaceOnUse"
       id="clipPath1045"><path
         d="M 0,0 H 365760 V 205740 H 0 Z"
         id="path1045" /></clipPath><clipPath
       clipPathUnits="userSpaceOnUse"
       id="clipPath1058"><path
         d="M 0,0 H 365760 V 205740 H 0 Z"
         transform="matrix(0.00262467,0,0,0.00262467,-619.2099,-396.25469)"
         id="path1058" /></clipPath></defs><g
     id="g1110"
     transform="matrix(0.26458333,0,0,0.26458334,55.147295,-196.72752)"><g
       id="g291"
       transform="translate(0,87.999991)"><g
         id="g146"
         transform="translate(0,-119.99999)"><path
           id="path1044"
           d="m 242299.48,135764 c -126.28,0 -227.31,101.02 -227.31,228.4 0,125.18 101.03,228.41 227.31,228.41 126.29,0 228.41,-103.23 228.41,-228.41 0,-127.38 -102.12,-228.4 -228.41,-228.4 z m 910.33,0 c -125.19,0 -228.41,101.02 -228.41,228.4 0,125.18 103.22,228.41 228.41,228.41 127.38,0 228.41,-103.23 228.41,-228.41 0,-127.38 -101.03,-228.4 -228.41,-228.4 z m 910.31,0 c -126.28,0 -228.39,101.02 -228.39,228.4 0,125.18 102.11,228.41 228.39,228.41 125.19,0 228.41,-103.23 228.41,-228.41 0,-127.38 -103.22,-228.4 -228.41,-228.4 z m 5899,-287.7 v 1054.17 h -8373.01 v -1054.17 z m -5452.06,3041.73 v 722.57 h -1787.7 v -722.57 z m 2203.89,0 v 722.57 h -1893.12 v -722.57 z m 2098.47,0 v 722.57 h -1788.81 v -722.57 z m -4302.36,1032.22 v 709.37 h -1788.81 v -709.37 z m 4302.36,0 v 709.37 h -1788.81 v -709.37 z m -2099.58,3.3 v 709.37 h -1893.12 v -709.37 z m -2202.78,1016.84 v 684.11 h -1788.81 v -684.11 z m 2203.89,0 v 684.11 h -1893.12 v -684.11 z m 2098.47,0 v 684.11 h -1788.81 v -684.11 z m -6339.34,-2997.83 c -137.25,0 -248.18,110.92 -248.18,247.08 v 3684.14 c 0,136.16 110.93,247.06 248.18,247.06 h 6587.52 c 137.24,0 248.15,-110.9 248.15,-247.06 v -3684.14 c 1.11,-138.36 -110.91,-247.08 -248.15,-247.08 z m 7489.04,-546.84 v 5212.68 h -8373.01 v -5212.68 z m -8760.64,-2327.99 c -214.12,0 -389.82,172.41 -389.82,388.74 v 7541.76 c 0,214.13 174.59,388.72 389.82,388.72 h 9149.38 c 215.22,0 389.83,-173.5 389.83,-388.72 v -7541.76 c -2.21,-213.03 -174.61,-388.74 -389.83,-388.74 z"
           style="fill:#2ab5e8;fill-opacity:1;fill-rule:evenodd;stroke:none"
           transform="matrix(0.00262467,0,0,0.00262467,-828,421.99999)"
           clip-path="url(#clipPath1045)" /></g><text
         id="text1057"
         xml:space="preserve"
         transform="translate(-208.7901,698.25468)"
         clip-path="url(#clipPath1058)"><tspan
           id="tspan1057"
           style="font-variant:normal;font-weight:normal;font-size:8px;font-family:Arial;writing-mode:lr-tb;fill:#11567f;fill-opacity:1;fill-rule:nonzero;stroke:none"
           x="0"
           y="0">Spreadsheet 2</tspan></text></g></g></svg>
