<?xml version="1.0" encoding="UTF-8" standalone="no"?>
<!-- Created with Inkscape (http://www.inkscape.org/) -->

<svg
   width="10.985375mm"
   height="15.151515mm"
   viewBox="0 0 10.985375 15.151515"
   version="1.1"
   id="svg1"
   xml:space="preserve"
   xmlns="http://www.w3.org/2000/svg"
   xmlns:svg="http://www.w3.org/2000/svg"><defs
     id="defs1"><clipPath
       clipPathUnits="userSpaceOnUse"
       id="clipPath1184"><path
         d="M 0,0 H 365760 V 205740 H 0 Z"
         id="path1184" /></clipPath><clipPath
       clipPathUnits="userSpaceOnUse"
       id="clipPath1195"><path
         d="M 0,0 H 365760 V 205740 H 0 Z"
         transform="matrix(0.00262467,0,0,0.00262467,-800.4548,-396.25469)"
         id="path1195" /></clipPath><clipPath
       clipPathUnits="userSpaceOnUse"
       id="clipPath1196"><path
         d="M 0,0 H 365760 V 205740 H 0 Z"
         transform="matrix(0.00262467,0,0,0.00262467,-790.445,-404.89469)"
         id="path1196" /></clipPath></defs><g
     id="g1110"
     transform="matrix(0.26458333,0,0,0.26458334,9.831007,-305.78605)"><g
       id="g239"
       transform="translate(0,79.999992)"><g
         id="g203"
         transform="translate(0,-119.99999)"><path
           id="path1183"
           d="m 313308.75,132484 c -155.95,0 -302.22,98.08 -352.05,254.03 l -519.32,1580.36 c -65.91,196.14 41.82,403.53 233.12,471.06 38.6,11.25 77.2,16.08 117.38,16.08 159.15,0 300.62,-99.69 350.46,-252.42 l 520.91,-1583.58 c 30.53,-94.86 24.09,-192.92 -22.5,-281.34 -45.03,-91.64 -120.59,-155.96 -213.85,-186.5 -38.6,-11.25 -75.56,-17.69 -114.15,-17.69 z m -2434.03,188.11 c -56.28,0 -110.94,12.86 -162.42,36.97 -183.24,93.25 -254,315.11 -163.96,496.78 l 749.19,1482.3 c 62.69,127.01 191.31,204.18 332.77,204.18 54.7,0 114.17,-14.46 167.23,-38.59 180.07,-93.23 252.41,-313.5 162.37,-496.78 l -752.4,-1482.3 c -45.03,-88.42 -122.2,-155.94 -215.44,-184.87 -38.59,-12.86 -78.78,-17.69 -117.34,-17.69 z m 4279.68,1397.09 c -56.28,0 -114.15,14.47 -165.6,41.8 l -1485.52,752.4 c -183.25,93.24 -255.62,315.12 -163.98,493.57 61.1,127 188.1,202.56 326.4,202.56 59.46,0 117.33,-11.25 167.18,-36.97 l 1487.12,-752.4 c 181.66,-93.26 255.62,-313.5 165.6,-495.18 -45.04,-90.03 -123.8,-157.56 -215.44,-184.88 -36.96,-14.48 -75.56,-20.9 -115.76,-20.9 z m -1397.1,1917.99 c -56.27,0 -112.52,12.86 -165.58,38.58 -88.44,45.01 -154.34,123.79 -183.28,215.43 -64.32,194.53 40.18,401.92 233.12,464.63 l 1580.38,520.89 c 36.96,11.25 73.94,16.08 115.76,16.08 162.36,0 302.24,-99.69 353.68,-252.41 27.34,-96.47 22.5,-192.92 -22.5,-284.56 -45.04,-88.43 -122.18,-154.35 -213.85,-183.28 l -1581.97,-516.08 c -36.96,-12.86 -77.16,-19.28 -115.76,-19.28 z m -1673.6,4072.29 c 241.14,0 434.08,199.35 434.08,437.3 0,239.55 -196.16,434.08 -434.08,434.08 h -1110.92 c -242.78,0 -435.68,-194.53 -435.68,-434.08 0,-242.76 197.74,-437.3 435.68,-437.3 z m -263.67,1612.52 c 241.17,0 435.69,197.75 435.69,437.3 0,237.93 -196.12,434.08 -435.69,434.08 h -1114.13 c -241.15,0 -434.1,-196.15 -434.1,-434.08 0,-244.38 194.54,-437.3 434.1,-437.3 z m -3059.47,-7504.73 c 41.82,0 85.22,6.43 128.64,17.68 181.68,48.24 311.9,237.94 311.9,451.77 v 189.7 c 9.62,948.55 -61.1,1903.52 -209,2844.02 -45.04,276.53 -73.98,506.42 -91.66,725.08 l -120.56,1583.58 c 0,842.43 -683.28,1525.7 -1525.72,1525.7 -202.56,0 -369.78,167.2 -369.78,369.78 0,202.56 167.22,369.76 369.78,369.76 602.87,0 1172.04,-236.32 1599.64,-660.76 429.3,-427.64 662.4,-990.35 662.4,-1573.94 l 96.46,-1215.42 h 5352.04 c 241.14,0 437.3,199.36 437.3,437.3 0,241.15 -197.75,434.08 -437.3,434.08 h -2053.04 c -220.26,-221.87 -517.69,-347.27 -827.96,-347.27 h -1110.92 c -649.53,0 -1176.84,527.33 -1176.84,1173.62 0,245.97 73.94,477.49 212.22,673.63 -297.44,217.03 -474.28,562.69 -474.28,938.89 0,175.25 40.18,350.48 118.96,508.03 -463,159.17 -784.56,599.67 -784.56,1102.89 0,152.73 30.56,299.03 85.22,437.3 h -1088.4 c -895.5,0 -1755.63,-377.81 -2372.98,-1036.97 v -4445.28 c 262.08,-281.36 561.1,-508.05 890.66,-678.46 281.34,-143.09 546.62,-342.43 834.42,-630.21 707.36,-694.54 1112.52,-1673.61 1110.9,-2688.08 v -70.74 c 0,-138.26 62.7,-263.65 172.02,-345.65 77.18,-59.49 167.22,-90.03 260.44,-90.03 z m 2392.28,9114.04 c 241.16,0 434.06,197.75 434.06,435.69 0,241.16 -196.12,435.69 -434.06,435.69 h -1115.74 c -237.94,0 -434.1,-196.14 -434.1,-435.69 0,-241.16 196.16,-435.69 438.9,-435.69 z M 304714,138215.45 v 6020.83 h -1702.56 v -6020.83 z m 4053,-4786.12 c -255.62,0 -504.8,83.61 -715.4,242.77 -294.22,223.46 -463.04,567.51 -463.04,932.46 v 77.17 c 1.6,813.49 -323.16,1599.66 -889.06,2155.93 -236.34,233.11 -445.34,390.67 -655.94,498.39 -221.86,112.53 -429.26,249.18 -625.4,401.92 -48.22,-147.91 -180.06,-255.63 -342.44,-255.63 h -2432.44 c -199.38,0 -364.98,163.99 -364.98,364.94 v 6749.12 c 0,200.96 165.6,364.96 364.98,364.96 h 2432.44 c 199.34,0 363.34,-164 363.34,-364.96 v -530.54 c 692.91,530.54 1540.19,826.36 2421.19,826.36 H 311148 c 649.53,0 1176.84,-527.33 1176.84,-1175.22 0,-178.45 -43.4,-350.48 -118.96,-508.03 463.02,-159.17 784.56,-599.67 784.56,-1102.89 0,-245.97 -75.56,-477.48 -212.22,-673.63 299.03,-217.03 474.28,-562.68 474.28,-937.28 0,-32.15 0,-57.87 -4.84,-88.42 h 1712.22 c 647.9,0 1175.22,-527.33 1175.22,-1175.23 1.62,-649.52 -522.5,-1176.83 -1170.4,-1176.83 h -5281.3 c 12.85,-83.61 24.1,-172.03 38.57,-266.89 155.97,-977.47 229.91,-1977.47 220.28,-2967.8 l -3.22,-183.28 c 0,-549.84 -350.5,-1027.33 -858.53,-1165.58 -104.5,-27.34 -209,-41.81 -313.5,-41.81 z"
           style="fill:#2ab5e8;fill-opacity:1;fill-rule:evenodd;stroke:none"
           transform="matrix(0.00262467,0,0,0.00262467,-828,848)"
           clip-path="url(#clipPath1184)" /></g><text
         id="text1194"
         xml:space="preserve"
         transform="translate(-27.5452,1124.2547)"
         clip-path="url(#clipPath1195)"><tspan
           id="tspan1194"
           style="font-variant:normal;font-weight:normal;font-size:8px;font-family:Arial;writing-mode:lr-tb;fill:#11567f;fill-opacity:1;fill-rule:nonzero;stroke:none"
           x="0"
           y="0">Easy / </tspan></text><text
         id="text1195"
         xml:space="preserve"
         transform="translate(-37.555,1132.8947)"
         clip-path="url(#clipPath1196)"><tspan
           id="tspan1195"
           style="font-variant:normal;font-weight:normal;font-size:8px;font-family:Arial;writing-mode:lr-tb;fill:#11567f;fill-opacity:1;fill-rule:nonzero;stroke:none"
           x="0"
           y="0">Consolidate</tspan></text></g></g></svg>
